<svg xmlns="http://www.w3.org/2000/svg" xmlns:svg="http://www.w3.org/2000/svg" id="Layer_1" width="250" height="250" version="1.1" viewBox="0 0 250 250"><defs id="defs1"><style id="style1">.st0{fill:#ff8236}.st2{fill:#1b1f20}</style></defs><rect id="rect1" width="250" height="250" x="0" y="0" class="st2" rx="8.686" ry="8.701" style="stroke-width:.266071"/><g id="g7"><g id="g6" transform="translate(-995.51066,-129.70875)"><path id="path4" d="m 1163.3,226.8 -13.5,24 c -17.8,-13.7 -44.2,-15.7 -62,-1 -28.7,23.7 -26.7,78.5 18,78.8 12.5,0 23.1,-5.9 34.5,-9.8 l 6,23.9 c -10.1,4.7 -20.4,9.5 -31.5,11 -101.2,13.8 -95.4,-132.3 -3.9,-139.9 19.2,-1.6 36.1,3.4 52.5,13 z" class="st0"/><path id="path5" d="m 1093.4,203.8 c -15.4,4.6 -29.7,13.1 -40.5,25 -2,-24.2 3.4,-73.1 30.3,-82.7 4,-1.4 17.7,-4.9 17.3,2.2 -0.4,7.1 -9.9,19.3 -12.2,25.9 -4,11.6 -0.3,19.6 5.2,29.7 z" class="st0"/><polygon id="polygon5" points="1131.4 307.8 1116.4 307.8 1116.4 290.8 1099.4 290.8 1099.4 276.8 1114.9 276.8 1116.4 275.3 1116.4 258.8 1131.4 258.8 1131.4 276.8 1147.4 276.8 1147.4 290.8 1131.4 290.8" class="st0"/><polygon id="polygon6" points="1186.4 290.8 1186.4 307.8 1171.4 307.8 1171.4 290.8 1155.4 290.8 1155.4 276.8 1171.4 276.8 1171.4 258.8 1186.4 258.8 1186.4 275.3 1187.9 276.8 1203.4 276.8 1203.4 290.8" class="st0"/><path id="path6" d="m 1142.3,156.9 c 2,3 -9.3,15.9 -11.1,19.2 -5.2,9.8 -1.7,15.4 2.2,24.7 -11.3,-1.7 -21.8,-0.3 -33,1 2.5,-21.5 14.6,-52.8 41.9,-44.9 z" class="st0"/></g></g></svg>